<svg xmlns="http://www.w3.org/2000/svg" xml:space="preserve" version="1.1" viewBox="0 0 300 300"><style>.fav{fill:#000}@media (prefers-color-scheme:dark){.fav{fill:#fff}}</style><path class="fav" d="M150.4 195.2c-10.4 20.2-30 23.8-46.5 6.5-1 1.7-2 3.3-3 4.9-6.9 10.7-17.8 15-28.8 11.7-4.2-1.3-6.7-3.5-7.3-7.9-1.4-10.2-3.1-20.3-4.6-30.4-4.9-33.5-9.7-67.1-14.5-100.6-2.4-16.8-4.9-33.7-7.3-50.5-.2-1.1-.2-2.3-.4-4.1 1.3 1 2.2 1.5 3 2.2 11.7 10 23.4 19.9 35 29.9 2 1.7 3.8 2.4 6.6 2 31.7-4.6 63.5-9 95.2-13.6 1.9-.3 4.1-1.7 5.1-3.3 8.6-12.7 17-25.5 25.5-38.3.7-1 1.5-2 2.7-3.7 1.7 12.3 3.3 23.8 4.9 35.3l12.9 93c2.4 17.5 5 35 7.2 52.5.5 4.2 1 9.9-1.3 12.5-4.6 5.3-11.6 7.2-18.9 6.1-6.1-.9-11.3-3.8-15.7-8-1-1-2-1.9-3.1-2.9-14.7 21.7-25.8 23.3-46.7 6.7zM65.5 121c-.1 19.2 15.4 34.8 34.5 35 19.1.1 34.8-15.4 35-34.5.1-19.4-15.3-35-34.7-35.1-19.2 0-34.7 15.4-34.8 34.6zm112.8-45.6c-19.2-.2-34.7 15-35.1 34.3-.4 18.9 15.1 34.9 34.3 35.2 19.1.4 35.1-15.3 35.3-34.6.2-18.9-15.3-34.6-34.5-34.9zm-31.9 91.8c3.8-7 6-13.8 4.1-21.5-1.1-4.3-3.9-7-7.7-6.7-4 .4-6.3 3.6-6.3 8.3.1 8.1 4.3 14.1 9.9 19.9zM50.6 47.3c.8 5.7 1.5 10.4 2.3 15.4 4.3-.6 8.2-1.2 12.8-1.9-5.2-4.6-9.8-8.8-15.1-13.5zm156.1-6.4c-.7-5.1-1.4-9.6-2.2-15.3-3.8 6.1-7 11.2-10.6 17 4.7-.6 8.5-1.1 12.8-1.7z"/><path class="fav" d="M69.6 221.9c15.1 4.6 26.4-1 35.2-13.6 7.3 6.1 15.4 9.8 25 8.4 9.5-1.4 16.2-7 21.6-15 7.4 6 15.3 9.7 24.9 8.4 9.6-1.3 16.3-7 20.9-13.8 6.5 2.5 12.6 5.6 18.9 7.1 6.8 1.6 13.2-1.1 19.1-4.9.3.2.7.4 1 .6-1.7 6.9-3.2 13.8-5.1 20.6-.2.8-2.3 1.6-3.5 1.7-9.5.8-18-1.5-25-8.4-.7-.7-1.5-1.3-2.3-2-10.4 20.2-30.2 23.9-46.8 6.6-4.7 8.6-10.6 15.9-21 17.4-10.4 1.5-18.3-3.4-25.4-11-1 1.7-1.9 3.2-2.8 4.7-5.2 8-12.1 13.2-22 13.2-1.2 0-3-.6-3.6-1.6-3.5-5.7-6.7-11.6-10-17.5.4-.4.7-.6.9-.9z"/><path class="fav" d="M201.1 217.8c13.1 8.3 18.5 9.9 28.8 7.9-3.6 6.4-6.8 12.1-10.5 18.9l-16.2-10.8c-4.4 8-10.4 15.3-20.9 16.8-10.4 1.5-18.2-3.7-25.4-11-4.8 9.1-11 16.2-21.5 17.6-10.5 1.4-18.5-3.7-25.6-11.3-3.9 6.3-7.6 12.3-15 14.8-4.3-4.7-8.6-9.5-12.6-13.9 5.1-1.6 10.4-2.5 14.8-5 4.6-2.5 8.3-6.5 12.5-10 14.5 11.9 32.7 9.9 45.2-7.9 7.2 6.1 15.3 9.6 24.9 8.3 9.6-1.1 16.3-6.8 21.5-14.4z"/><path class="fav" d="M101.7 263.6c3.3-3.5 6.5-6.9 9.6-10.3 19.1 13 29.1 11.6 46.6-6.6 15 12.4 33.3 11.8 46.4-6.5 3.9 2.3 7.8 4.7 11.8 7-21.4 29.9-81.4 40.7-114.4 16.4zm-67.4-52.5c-1.9-25.5.5-48.7 17.6-69.5 1 7.9 1.6 14.8 2.9 21.6 1.3 6.9-.6 13.1-2.8 19.3-3.9 10.3-9.3 19.7-17.7 28.6zm196.2-93.9c21.8 14.2 30.5 36 35.8 60.9-11.6-6.6-19.8-15.5-27.1-25.5-7.8-10.7-5.7-23.6-8.7-35.4zm-11.5 167c-2.5-1.6-4.4-2.9-6.5-4.3-1.5 1.8-3 3.6-4.6 5.6-2-1.3-3.8-2.6-5.9-4.1-1.6 1.8-3.1 3.5-5.2 5.8-.6-4.5-1.5-8.4-1.5-12.3-.1-6.3 4.1-10.4 10.4-11 5.6-.5 10.2 2.8 11.6 8.8.8 3.6 1.1 7.2 1.7 11.5zm-104.8 9.7c-1.7 1.9-3.1 3.5-5.4 6.1-.4-5.6-1.2-10.2-.9-14.7.4-5.3 5-8.7 10.6-8.9 5-.2 9.4 3.1 10.9 8.2.3 1.1.5 2.3.7 3.4.4 2.5.7 5.1 1.1 8.5-2.5-1.6-4.3-2.8-6.4-4.2-1.5 1.8-3 3.6-4.6 5.5-1.9-1.2-3.8-2.5-6-3.9zm-.2-172.8c0 7.7-6.3 14-13.8 13.9-7.5-.1-13.6-6.2-13.6-13.7 0-7.8 6.1-13.8 13.8-13.8 7.5.1 13.6 6.1 13.6 13.6zm63.9-24.6c7.5 0 13.7 6.1 13.8 13.5.1 7.5-6.3 14-13.8 14-7.6 0-13.9-6.4-13.7-13.9.2-7.7 6.2-13.6 13.7-13.6z"/></svg>