<?xml version="1.0" standalone="no"?>
<!DOCTYPE svg PUBLIC "-//W3C//DTD SVG 20010904//EN"
 "http://www.w3.org/TR/2001/REC-SVG-20010904/DTD/svg10.dtd">
<svg version="1.0" xmlns="http://www.w3.org/2000/svg"
 width="1200.000000pt" height="1200.000000pt" viewBox="0 0 1200.000000 1200.000000"
 preserveAspectRatio="xMidYMid meet">
<metadata>
Created by potrace 1.14, written by Peter Selinger 2001-2017
</metadata>
<g transform="translate(0.000000,1200.000000) scale(0.100000,-0.100000)"
fill="#000000" stroke="none">
<path d="M8388 11913 c-30 -43 -68 -98 -84 -123 -16 -25 -31 -47 -34 -50 -3
-3 -21 -30 -40 -60 -19 -30 -38 -56 -42 -58 -5 -2 -8 -7 -8 -11 0 -6 -383
-589 -440 -671 -6 -8 -50 -74 -98 -146 -207 -312 -322 -480 -341 -501 -57 -60
-129 -94 -231 -108 -25 -3 -56 -8 -70 -10 -14 -2 -45 -7 -70 -10 -25 -3 -57
-8 -72 -11 -16 -2 -40 -6 -55 -8 -16 -3 -48 -8 -73 -11 -92 -12 -116 -15 -136
-19 -11 -2 -47 -7 -79 -10 -32 -4 -61 -8 -64 -10 -3 -2 -35 -7 -71 -11 -36 -3
-72 -8 -80 -10 -8 -2 -35 -7 -60 -10 -25 -3 -72 -10 -105 -15 -79 -12 -137
-20 -177 -25 -18 -2 -51 -7 -73 -10 -53 -9 -79 -12 -150 -21 -33 -5 -62 -9
-65 -9 -3 -1 -32 -5 -65 -9 -33 -5 -69 -10 -80 -12 -11 -2 -40 -7 -65 -10 -53
-7 -96 -13 -130 -19 -14 -2 -47 -7 -75 -10 -27 -3 -57 -8 -65 -10 -8 -2 -40
-6 -71 -10 -31 -3 -65 -7 -75 -9 -11 -2 -41 -7 -69 -10 -27 -4 -77 -11 -110
-16 -33 -5 -79 -12 -101 -15 -38 -5 -59 -8 -149 -20 -16 -2 -48 -7 -70 -10
-22 -4 -51 -8 -65 -10 -88 -13 -189 -27 -210 -30 -14 -2 -47 -7 -75 -10 -27
-3 -61 -8 -75 -11 -14 -2 -43 -7 -65 -9 -22 -3 -51 -7 -65 -10 -14 -3 -45 -7
-69 -10 -25 -3 -103 -14 -175 -25 -134 -20 -180 -26 -251 -36 -45 -6 -64 -9
-155 -23 -144 -22 -212 3 -365 135 -55 48 -124 107 -154 133 -29 25 -61 53
-71 61 -72 62 -149 127 -305 259 -99 84 -191 163 -205 175 -41 35 -153 131
-180 154 -14 11 -122 102 -240 202 -183 155 -278 230 -293 230 -2 0 0 -33 5
-72 4 -40 10 -100 13 -133 4 -33 10 -78 15 -100 5 -22 11 -62 14 -90 8 -63 17
-134 23 -160 2 -11 8 -56 14 -100 5 -44 12 -86 14 -93 2 -7 7 -40 10 -75 4
-34 13 -98 20 -142 8 -44 16 -100 19 -125 5 -42 23 -165 47 -320 5 -36 12 -87
15 -115 2 -27 11 -86 19 -130 7 -44 17 -107 20 -140 4 -33 10 -78 15 -100 5
-22 11 -67 15 -100 3 -33 10 -82 15 -110 5 -27 12 -75 15 -105 4 -30 9 -68 11
-85 2 -16 8 -52 13 -80 5 -27 12 -76 15 -108 3 -32 8 -62 10 -65 2 -4 7 -34
10 -67 6 -53 18 -141 21 -155 1 -3 5 -27 9 -55 9 -63 43 -297 57 -390 6 -38
12 -84 14 -101 1 -17 6 -50 10 -72 4 -23 8 -52 10 -65 1 -12 5 -38 9 -57 3
-19 8 -56 11 -82 2 -26 7 -58 10 -70 3 -13 7 -39 9 -58 3 -19 10 -69 16 -110
6 -41 13 -93 16 -115 3 -22 12 -85 21 -140 8 -55 19 -134 23 -175 5 -41 13
-100 19 -130 6 -30 13 -73 15 -95 16 -118 48 -341 51 -345 2 -3 6 -34 10 -70
3 -36 12 -101 20 -145 8 -44 17 -102 20 -130 3 -27 9 -79 15 -115 27 -185 42
-287 45 -300 1 -8 6 -42 11 -75 4 -33 8 -62 9 -65 3 -14 15 -102 21 -150 3
-30 7 -57 9 -60 2 -3 6 -33 10 -65 3 -33 12 -100 20 -150 8 -49 17 -112 20
-140 3 -27 10 -70 15 -95 5 -25 12 -69 15 -98 3 -30 10 -73 15 -95 5 -23 12
-64 15 -92 3 -27 12 -86 20 -130 8 -44 17 -102 20 -130 3 -27 9 -74 15 -105 5
-30 14 -86 20 -125 5 -38 12 -81 14 -95 4 -25 15 -103 21 -152 12 -87 61 -185
117 -232 51 -43 173 -95 258 -111 147 -27 265 -27 405 0 55 10 164 50 231 85
197 102 336 244 499 508 l57 94 32 -34 c152 -159 359 -292 555 -358 120 -40
153 -45 316 -44 121 1 152 5 228 28 167 50 305 134 437 266 47 47 96 99 108
115 12 17 36 48 52 69 17 22 54 79 82 128 34 59 54 85 62 80 293 -227 555
-376 716 -408 14 -2 31 -7 38 -9 21 -8 113 -19 152 -19 167 1 310 50 460 159
69 50 242 220 301 294 19 24 39 48 45 55 6 6 41 54 79 106 37 52 69 96 70 97
1 2 39 -33 86 -78 187 -179 396 -303 564 -335 191 -37 329 -39 466 -6 142 34
245 90 348 186 92 88 107 134 105 341 -1 147 -8 239 -29 355 -3 15 -12 92 -21
165 -4 40 -14 107 -19 135 -2 8 -6 44 -9 80 -4 36 -9 76 -11 90 -9 50 -14 86
-20 140 -3 30 -10 80 -15 110 -11 60 -16 99 -25 175 -3 28 -10 75 -15 105 -5
30 -12 78 -15 105 -9 78 -15 118 -20 140 -2 11 -7 49 -10 85 -4 36 -10 81 -15
100 -5 19 -11 64 -15 100 -3 36 -12 101 -20 145 -8 44 -16 105 -20 135 -3 30
-9 80 -14 110 -5 30 -12 80 -16 110 -3 30 -10 80 -15 110 -5 30 -12 80 -15
110 -3 30 -12 93 -20 140 -7 47 -16 103 -18 125 -10 84 -29 223 -43 310 -7 50
-16 113 -19 141 -3 28 -7 59 -9 70 -7 37 -15 99 -21 154 -3 30 -10 78 -15 105
-5 28 -12 75 -15 105 -3 30 -12 93 -20 140 -7 47 -16 110 -19 140 -3 30 -7 64
-10 75 -6 33 -15 96 -21 160 -4 32 -8 62 -10 65 -2 3 -6 30 -9 60 -4 30 -15
116 -26 190 -34 229 -39 269 -56 405 -4 33 -8 62 -9 65 -8 30 -26 167 -27 200
0 8 -4 31 -9 50 -4 19 -11 62 -14 95 -5 56 -10 90 -19 140 -2 11 -7 47 -10 80
-4 33 -13 101 -21 150 -7 50 -19 131 -26 180 -7 50 -14 97 -15 105 -2 8 -6 38
-9 65 -3 28 -10 79 -15 115 -5 36 -11 83 -14 105 -5 44 -28 204 -51 355 -8 52
-17 115 -20 140 -3 25 -7 59 -10 75 -2 17 -11 84 -20 150 -8 66 -18 127 -20
135 -2 8 -7 38 -10 65 -3 28 -9 73 -12 100 -4 28 -6 53 -5 58 7 25 -22 -3 -70
-70z m-197 -970 c0 -10 2 -27 5 -38 2 -11 6 -40 9 -65 3 -25 8 -56 10 -70 3
-14 7 -47 11 -75 3 -27 8 -53 10 -56 2 -3 6 -34 10 -70 3 -35 12 -94 19 -132
7 -37 10 -69 6 -71 -6 -4 -50 -11 -126 -21 -22 -2 -56 -6 -75 -9 -19 -2 -91
-12 -160 -21 -69 -8 -131 -18 -139 -20 -10 -4 -8 3 5 22 26 40 357 571 379
611 21 36 35 41 36 15z m-6079 -908 c58 -53 67 -61 230 -206 233 -208 292
-266 277 -266 -8 0 -36 -3 -64 -7 -27 -4 -63 -9 -80 -12 -16 -2 -39 -5 -50 -8
-22 -4 -114 -17 -155 -21 -34 -4 -100 -15 -127 -20 -22 -5 -27 11 -49 180 -7
47 -11 79 -18 120 -3 17 -8 53 -11 80 -5 46 -11 88 -22 140 -15 78 -15 87 0
78 8 -4 39 -30 69 -58z m5233 -1069 c17 -4 59 -14 95 -22 36 -9 72 -17 80 -19
8 -2 16 -4 18 -5 1 -2 5 -3 10 -5 4 -1 14 -4 22 -8 8 -3 38 -13 65 -23 108
-39 250 -122 365 -212 102 -81 253 -252 323 -367 83 -136 154 -335 184 -515 7
-45 7 -322 0 -375 -55 -390 -290 -763 -617 -980 -252 -167 -498 -238 -795
-230 -302 8 -564 98 -800 274 -72 54 -66 49 -155 136 -117 114 -234 283 -289
415 -12 30 -26 64 -31 75 -11 26 -44 135 -59 200 -33 137 -32 419 3 580 14 66
45 165 65 210 5 11 17 40 27 65 84 204 273 433 471 573 167 117 403 211 587
233 22 3 42 7 45 9 6 7 353 -2 386 -9z m-3200 -431 c39 -3 89 -10 113 -16 23
-5 59 -12 79 -15 98 -16 322 -110 422 -178 29 -20 55 -36 58 -36 13 0 116 -91
199 -176 165 -167 286 -381 344 -609 30 -117 41 -199 44 -334 7 -282 -77 -558
-245 -806 -44 -66 -60 -86 -142 -175 -180 -196 -483 -361 -738 -404 -19 -3
-45 -8 -59 -12 -37 -9 -350 -12 -390 -3 -55 12 -154 32 -167 35 -121 22 -379
150 -498 246 -144 115 -302 306 -383 460 -56 107 -124 308 -136 404 -15 120
-20 176 -20 239 2 540 320 1036 806 1259 164 76 323 114 503 123 66 3 122 7
124 9 2 2 7 2 10 0 3 -2 38 -7 76 -11z m1707 -2116 c70 -37 128 -109 161 -199
23 -63 43 -203 41 -285 -1 -79 -21 -216 -36 -254 -5 -14 -12 -37 -14 -50 -3
-13 -11 -36 -19 -52 -8 -15 -15 -33 -15 -39 0 -15 -101 -220 -109 -220 -10 0
-111 116 -184 212 -65 86 -167 277 -167 313 0 9 -4 25 -10 35 -16 30 -25 118
-24 240 0 104 3 120 27 165 32 60 52 85 93 113 68 47 189 57 256 21z"/>
<path d="M7000 8126 c-130 -28 -268 -126 -337 -238 -47 -76 -62 -115 -77 -203
-33 -191 27 -363 175 -499 210 -195 536 -188 738 15 86 86 87 87 126 174 64
140 64 304 0 441 -37 80 -49 97 -122 169 -54 54 -133 101 -218 130 -62 21
-212 27 -285 11z"/>
<path d="M3889 7686 c-241 -53 -419 -280 -419 -534 0 -347 319 -606 659 -536
101 21 186 68 267 149 113 111 167 238 166 390 0 124 -26 208 -98 311 -69 98
-144 156 -263 201 -78 30 -222 38 -312 19z"/>
<path d="M9233 7284 c18 -81 47 -267 52 -329 3 -38 10 -104 16 -145 6 -41 12
-102 15 -135 7 -80 41 -269 64 -358 26 -99 90 -264 115 -297 6 -8 17 -26 23
-40 7 -14 33 -53 57 -85 24 -33 58 -80 76 -105 18 -25 40 -53 49 -62 8 -9 20
-23 25 -30 32 -41 94 -118 125 -153 62 -71 283 -289 355 -351 89 -77 231 -184
244 -184 5 0 11 -4 13 -9 2 -5 44 -34 93 -65 102 -63 106 -61 81 37 -19 77
-77 316 -80 331 -3 13 -38 130 -73 241 -26 82 -63 191 -81 235 -6 14 -20 50
-32 80 -62 159 -160 363 -238 495 -41 70 -144 228 -152 235 -4 3 -21 26 -38
52 -18 25 -38 53 -44 60 -7 7 -37 43 -67 78 -129 156 -367 368 -570 510 l-34
23 6 -29z"/>
<path d="M2027 6273 c-60 -76 -107 -143 -159 -226 -24 -38 -51 -80 -60 -95
-96 -152 -262 -526 -293 -659 -2 -10 -16 -58 -30 -108 -36 -128 -48 -184 -71
-335 -8 -52 -17 -102 -20 -110 -3 -8 -7 -46 -10 -85 -3 -38 -7 -83 -9 -100
-20 -132 -25 -587 -10 -815 4 -69 8 -135 9 -147 2 -39 8 -35 91 62 28 32 55
63 62 70 13 14 142 183 163 215 8 12 23 33 33 45 9 13 17 26 17 29 0 3 16 28
35 55 19 26 35 51 35 55 0 3 11 24 25 46 65 103 165 318 233 500 79 211 116
337 130 448 13 108 4 382 -14 413 -3 6 -12 65 -29 189 -3 25 -8 54 -10 65 -3
21 -11 86 -20 170 -3 28 -7 61 -9 75 -9 55 -28 221 -30 262 -1 15 -4 29 -7 32
-3 4 -26 -20 -52 -51z"/>
<path d="M7850 4088 c-55 -76 -215 -238 -272 -275 -23 -16 -53 -36 -67 -45
-124 -81 -278 -140 -431 -166 -51 -9 -318 -7 -370 2 -175 31 -385 133 -607
296 l-42 30 -20 -27 c-11 -16 -25 -33 -31 -40 -5 -7 -10 -17 -10 -23 0 -5 -4
-10 -8 -10 -5 0 -22 -19 -39 -42 -74 -103 -248 -254 -375 -326 -54 -31 -191
-88 -231 -97 -12 -2 -40 -9 -62 -15 -70 -17 -147 -24 -265 -23 -263 1 -494 92
-773 304 -46 34 -53 37 -61 21 -53 -96 -309 -357 -397 -405 -13 -7 -44 -26
-69 -42 -91 -59 -263 -119 -380 -133 -102 -12 -330 -4 -392 14 -9 3 -25 7 -35
9 -10 2 -40 8 -67 14 -49 12 -86 7 -86 -9 0 -9 28 -62 86 -165 12 -22 34 -60
47 -85 14 -25 34 -61 46 -80 11 -19 30 -53 42 -75 12 -22 59 -104 105 -181
103 -176 117 -185 264 -179 114 5 124 7 225 35 170 47 340 161 479 320 64 74
173 236 221 331 5 10 13 18 16 17 4 -2 43 -37 87 -78 118 -112 139 -130 150
-130 6 0 12 -4 14 -9 2 -5 30 -27 63 -49 178 -117 363 -176 555 -176 207 0
372 49 539 159 133 88 273 247 395 448 l58 95 41 -42 c134 -136 312 -256 482
-325 121 -50 204 -65 350 -66 155 0 190 4 285 35 199 66 375 190 517 368 21
26 40 49 43 52 9 8 93 139 124 193 l27 48 60 -53 c55 -50 138 -119 185 -157
82 -65 294 -159 398 -177 17 -2 39 -7 49 -10 40 -12 78 -15 237 -19 140 -3
173 -1 219 15 29 9 61 26 70 36 10 11 26 53 36 94 10 41 23 93 30 115 7 22 27
101 44 175 18 74 50 205 70 290 21 85 36 160 34 167 -8 22 -42 20 -78 -4 -57
-38 -223 -118 -297 -143 -159 -51 -310 -57 -463 -15 -128 34 -238 75 -523 194
-106 45 -194 81 -195 81 -1 -1 -22 -29 -47 -62z"/>
<path d="M8033 3263 c-10 -15 -22 -33 -28 -39 -5 -7 -25 -31 -44 -55 -33 -42
-207 -218 -247 -249 -30 -24 -145 -95 -189 -117 -51 -26 -210 -81 -255 -88
-19 -3 -57 -9 -85 -13 -146 -23 -401 4 -530 57 -145 59 -283 138 -388 220 -35
28 -67 51 -69 51 -3 0 -32 -35 -65 -77 -170 -219 -375 -378 -592 -460 -36 -14
-70 -26 -76 -27 -5 -2 -28 -8 -50 -14 -75 -20 -130 -26 -260 -26 -193 0 -337
36 -520 131 -59 30 -208 127 -230 150 -16 15 -28 10 -65 -27 -3 -3 -39 -34
-80 -70 -41 -36 -84 -73 -95 -84 -131 -120 -254 -202 -388 -257 -53 -22 -302
-100 -362 -113 -58 -13 -115 -31 -115 -37 0 -5 17 -26 37 -48 40 -42 149 -162
180 -197 20 -24 140 -156 224 -247 l56 -61 44 17 c84 32 173 92 254 172 91 90
119 124 199 245 31 47 63 94 71 105 8 10 15 25 15 32 0 25 22 12 83 -48 34
-34 94 -87 132 -118 39 -31 72 -59 73 -63 2 -5 10 -8 17 -8 7 0 15 -4 17 -8 9
-22 178 -109 277 -144 176 -60 366 -67 557 -18 221 57 402 185 563 400 75 99
113 157 133 203 7 15 16 27 20 27 4 0 8 9 8 19 0 37 18 31 77 -25 371 -354
729 -464 1118 -344 67 21 214 91 238 114 7 6 30 24 52 40 112 82 257 258 356
433 24 42 42 53 54 32 4 -6 14 -13 24 -17 9 -4 123 -79 254 -167 132 -88 254
-169 273 -180 18 -11 42 -27 52 -36 22 -19 17 -23 69 71 17 30 77 138 133 240
56 102 116 210 132 240 32 58 54 97 89 155 l20 35 -28 -4 c-15 -2 -50 -8 -78
-12 -88 -15 -313 -9 -385 10 -167 44 -308 109 -545 251 -44 27 -88 55 -97 62
-15 13 -18 11 -35 -14z"/>
<path d="M8160 2366 c-40 -66 -220 -255 -295 -311 -22 -17 -48 -37 -58 -46
-64 -57 -332 -176 -437 -193 -136 -23 -307 -23 -405 -2 -207 46 -424 147 -580
271 -22 18 -45 35 -51 38 -7 4 -51 -32 -101 -81 -338 -330 -569 -473 -818
-509 -71 -10 -202 -7 -268 7 -31 6 -60 12 -64 12 -26 1 -193 67 -273 108 -101
50 -263 146 -315 186 l-32 24 -56 -58 c-31 -31 -68 -70 -83 -87 -15 -16 -75
-81 -133 -144 -58 -62 -107 -117 -109 -121 -10 -27 311 -213 508 -296 93 -38
250 -94 250 -88 0 2 8 0 18 -5 16 -9 177 -53 232 -65 102 -21 182 -35 220 -41
25 -3 56 -8 70 -10 29 -5 103 -13 215 -24 82 -9 595 -6 650 2 17 3 64 9 105
12 41 4 82 9 92 10 9 2 38 7 65 11 26 3 57 8 68 10 10 2 37 6 59 10 22 3 43 7
46 9 3 2 25 6 50 10 25 4 47 8 51 10 3 2 21 7 40 10 19 3 61 13 94 22 33 8 65
16 70 17 20 5 131 38 175 53 25 8 50 16 55 17 6 1 15 4 20 7 6 4 35 14 65 24
192 62 532 229 694 340 37 25 70 45 75 45 5 0 11 3 13 8 2 4 39 33 82 66 43
32 88 67 100 77 12 10 32 27 46 39 111 95 354 362 339 374 -13 9 -450 267
-461 271 -7 3 -20 -6 -28 -19z"/>
<path d="M8148 1425 c-151 -38 -254 -129 -307 -270 -19 -51 -21 -72 -17 -208
2 -84 9 -168 15 -187 5 -19 12 -59 15 -88 14 -132 23 -173 34 -155 7 12 103
122 162 186 l35 38 117 -81 c64 -44 119 -80 122 -80 2 0 17 17 33 38 25 34 64
83 128 160 20 24 21 24 53 5 17 -10 32 -21 32 -25 0 -5 5 -8 10 -8 6 0 48 -25
95 -57 47 -31 87 -54 89 -52 2 2 -2 42 -10 89 -7 47 -16 110 -19 140 -3 30 -8
66 -11 80 -3 13 -7 40 -10 59 -23 180 -114 320 -249 387 -67 33 -84 37 -167
40 -59 2 -114 -2 -150 -11z"/>
<path d="M4659 935 c-161 -34 -281 -136 -322 -274 -18 -60 -21 -250 -6 -356 4
-33 11 -107 14 -165 6 -110 13 -150 24 -132 7 12 110 130 167 191 l41 44 88
-59 c127 -85 155 -100 163 -88 20 31 168 204 174 204 4 0 62 -36 128 -79 l120
-79 0 41 c0 23 -7 80 -15 127 -7 47 -17 114 -20 150 -4 35 -8 67 -11 71 -2 4
-8 30 -14 57 -21 112 -112 243 -206 298 -91 54 -214 72 -325 49z"/>
</g>
</svg>
